<svg width="55" height="36" viewBox="0 0 55 36" fill="none" xmlns="http://www.w3.org/2000/svg">
<path d="M6.34622 29.255H7.29437V27.4067C7.29437 27.0771 7.29437 26.6714 7.4661 26.4335C7.63696 26.1749 7.94383 26.0908 8.11512 26.0908C8.91393 26.0908 8.91393 27.0154 8.91393 27.3365V29.255H9.86164V27.1548C9.86164 26.8531 9.86164 26.2028 9.49839 25.776C9.17087 25.383 8.64967 25.2351 8.30794 25.2351C7.7084 25.2351 7.38045 25.5588 7.22379 25.7059V25.3687H6.34622L6.34622 29.255" fill="#9E9E9E"/>
<path fill-rule="evenodd" clip-rule="evenodd" d="M14.1737 27.7288C14.2094 27.5748 14.2285 27.4176 14.2305 27.2597C14.2305 26.2807 13.4386 25.2146 12.1836 25.2146C10.9639 25.2146 10.1014 26.224 10.1014 27.3227C10.1014 28.4564 11.0142 29.3814 12.1909 29.3814C13.118 29.3814 13.8737 28.7307 14.1018 28.0305H13.1033C12.9252 28.3525 12.6118 28.527 12.1909 28.527C11.5135 28.527 11.1425 27.9811 11.0994 27.7284L14.1737 27.7288ZM11.071 26.9796C11.2492 26.2583 11.8414 26.0694 12.1909 26.0694C12.6618 26.0694 13.1533 26.3563 13.2604 26.9796H11.071Z" fill="#9E9E9E"/>
<path d="M15.448 29.255H16.0316L16.7805 26.7348H16.7947L17.5371 29.255H18.1216L19.569 25.3687H18.5567L17.8285 27.7426H17.8147L17.1722 25.3687H16.4173L15.7682 27.7426H15.754L15.034 25.3687H14.0213L15.448 29.255Z" fill="#9E9E9E"/>
<path fill-rule="evenodd" clip-rule="evenodd" d="M21.4047 29.2551H22.2741V28.786C22.5087 29.0455 22.8452 29.3814 23.6083 29.3814C25.0553 29.3814 25.5761 28.0723 25.5761 27.294C25.5761 26.2663 24.7919 25.2357 23.5868 25.2357C23.1444 25.2357 22.6804 25.3975 22.3524 25.7199V24.074H21.4047V29.2551ZM22.2952 27.2602C22.2952 26.6931 22.7445 26.0909 23.4719 26.0909C24.0714 26.0909 24.6279 26.5452 24.6279 27.3024C24.6279 28.0576 24.1071 28.5274 23.4865 28.5274C22.9305 28.5274 22.2952 28.1214 22.2952 27.2597V27.2602ZM30.0035 25.3688H29.1328V25.8602H29.1186C29.0897 25.8036 28.6116 25.2352 27.8068 25.2352C26.7088 25.2352 25.824 26.0969 25.824 27.2881C25.824 28.5828 26.7299 29.3814 27.7499 29.3814C28.2483 29.3814 28.8337 29.1216 29.1328 28.7734V29.2551H30.0035V25.3688ZM29.1052 27.3024C29.1052 28.0233 28.6051 28.527 27.9488 28.527C27.2718 28.527 26.7721 27.9878 26.7721 27.3299C26.7721 26.7489 27.1715 26.0909 27.9488 26.0909C28.5126 26.0909 29.1052 26.4966 29.1052 27.3024Z" fill="#9E9E9E"/>
<path d="M31.4551 24.0739H30.5069V29.255H31.4551V24.0739Z" fill="#9E9E9E"/>
<path fill-rule="evenodd" clip-rule="evenodd" d="M35.9185 25.3688H35.0491V25.8602H35.0341C35.0052 25.8036 34.5271 25.2352 33.7222 25.2352C32.623 25.2352 31.7394 26.0969 31.7394 27.2881C31.7394 28.5828 32.6454 29.3814 33.665 29.3814C34.1642 29.3814 34.7483 29.1216 35.0487 28.7734V29.2551H35.9185V25.3688ZM35.0199 27.3024C35.0199 28.0233 34.521 28.527 33.8647 28.527C33.1868 28.527 32.688 27.9878 32.688 27.3299C32.688 26.7489 33.0874 26.0909 33.8647 26.0909C34.4285 26.0909 35.0199 26.4966 35.0199 27.3024Z" fill="#9E9E9E"/>
<path d="M36.4234 29.2551H37.3711V27.4068C37.3711 27.0772 37.3711 26.6715 37.5433 26.4336C37.7137 26.175 38.0214 26.0909 38.1919 26.0909C38.9902 26.0909 38.9902 27.0155 38.9902 27.3367V29.2551H39.9392V27.155C39.9392 26.8532 39.9392 26.2029 39.5747 25.7761C39.2467 25.3831 38.7268 25.2352 38.3842 25.2352C37.7847 25.2352 37.4576 25.5589 37.3001 25.706V25.3688H36.4234V29.2551V29.2551ZM43.3087 27.9878C43.0591 28.38 42.7458 28.527 42.432 28.527C41.718 28.527 41.2407 27.9739 41.2407 27.3088C41.2407 26.5106 41.8114 26.0905 42.3886 26.0905C42.9739 26.0905 43.1951 26.4615 43.3087 26.6572H44.3791C43.9724 25.4596 42.8874 25.2352 42.3886 25.2352C41.2975 25.2352 40.2926 26.1049 40.2926 27.294C40.2926 28.5828 41.3823 29.3814 42.3963 29.3814C43.3234 29.3814 44.0576 28.8558 44.3791 27.9878H43.3087" fill="#9E9E9E"/>
<path fill-rule="evenodd" clip-rule="evenodd" d="M48.5981 27.7288C48.6261 27.6033 48.6545 27.4415 48.6545 27.2598C48.6545 26.2807 47.8634 25.2146 46.6084 25.2146C45.3887 25.2146 44.5258 26.224 44.5258 27.3227C44.5258 28.4564 45.4386 29.3814 46.6153 29.3814C47.542 29.3814 48.2986 28.7307 48.5263 28.0305H47.5282C47.3496 28.3525 47.0367 28.527 46.6158 28.527C45.9375 28.527 45.5669 27.9811 45.5251 27.7284L48.5981 27.7288ZM45.4959 26.9796C45.6745 26.2583 46.2663 26.0694 46.6153 26.0694C47.0866 26.0694 47.5781 26.3563 47.6848 26.9796H45.4959ZM22.4877 16.3737L21.2202 18.5228L14.2049 18.1353L14.9069 16.9382L22.4877 16.3737ZM27.5594 9.5256L28.1951 11.8975L18.2402 11.2552L18.9422 10.0585L27.5594 9.5256ZM20.9598 6.61837L26.7873 6.6226L27.2267 8.2444L20.2587 7.81508L20.9598 6.61837ZM20.4477 19.8594L19.4363 21.5674L12.1868 21.575L12.8888 20.3791L20.4477 19.8594ZM33.1747 15.2514L31.42 18.2376H33.0912C33.8659 18.2376 35.2531 17.8581 35.68 16.7755C36.076 15.7698 35.3486 15.2501 34.8412 15.2501L33.1747 15.2514ZM34.8481 12.3948L36.3058 12.3864C37.2759 12.3809 38.2877 11.9452 38.6579 11.0612C38.9992 10.2414 38.5404 9.54252 37.9322 9.54505L36.5223 9.54337L34.8481 12.3948ZM28.2502 11.8975L29.7221 9.39041L34.7035 9.07642L34.8773 8.77219L30.2692 8.45568L31.3468 6.61837H39.8926C42.5206 6.61837 44.4647 7.54042 43.7089 10.2533C43.4817 11.0752 42.4134 13.144 39.2806 14.0107C39.9456 14.0884 41.6017 14.8093 41.3164 16.6771C40.8094 19.9887 36.4418 21.5653 34.0127 21.5661L23.9231 21.5708L23.426 19.6545L28.7103 19.2885L28.8898 18.9851L23.1583 18.6429L22.5407 16.3707L30.6965 15.9034L30.8734 15.6025L16.2217 14.6948L16.9237 13.499L32.6948 12.4933L32.8734 12.192L28.2498 11.8975" fill="#9E9E9E"/>
</svg>
