<svg width="45" height="34" viewBox="0 0 45 34" fill="none" xmlns="http://www.w3.org/2000/svg">
<path d="M39.917 26.1588C38.859 25.902 37.4761 25.9389 37.4761 25.2733C37.5575 24.794 37.9631 24.684 38.6155 24.684C39.5926 24.684 39.6736 25.2395 39.6736 25.5695H41.2999C41.2215 24.278 40.1632 23.4292 38.5343 23.4292C36.8267 23.4292 35.8469 24.3514 35.8469 25.533C35.8469 26.1958 36.1744 26.8246 36.7426 27.1207C37.1514 27.304 37.7196 27.4536 38.4531 27.5606C39.1023 27.6733 39.7546 27.71 39.8358 28.2262C39.8358 28.559 39.43 29.0017 38.6965 29.0017C37.6383 28.965 37.395 28.3758 37.395 27.9329H35.6846C35.7658 29.2611 36.8267 30.183 38.6155 30.183C40.2445 30.183 41.5463 29.5571 41.5463 27.9329C41.5463 27.0441 40.8941 26.418 39.917 26.1588Z" fill="#9E9E9E"/>
<path d="M16.0761 21.2053L13.064 15.9996L7.44872 19.2848L8.5069 21.2053H16.0761Z" fill="#9E9E9E"/>
<path d="M20.0611 23.4162H18.4418V29.9869H20.0611V23.4162Z" fill="#9E9E9E"/>
<path d="M8.5847 24.0295C8.01657 23.6261 7.36407 23.4402 6.6308 23.4402C4.84205 23.4402 3.29686 24.9176 3.29686 26.7988C3.29686 28.6797 4.84193 30.194 6.6308 30.194C7.36418 30.194 8.09768 30.0078 8.5847 29.6387V30.0445H10.2138V23.5135H8.5847V24.0295ZM6.71202 28.6796C5.73788 28.6796 4.84205 27.8309 4.84205 26.7987C4.84205 25.8033 5.73777 24.9176 6.71202 24.9176C7.77312 24.9176 8.5847 25.8031 8.5847 26.7987C8.5847 27.8308 7.77301 28.6796 6.71202 28.6796Z" fill="#9E9E9E"/>
<path d="M35.935 21.2039L26.1683 4.15424L20.553 7.47604L28.3657 21.2039L35.935 21.2039Z" fill="#9E9E9E"/>
<path d="M16.0763 24.0295C15.5052 23.6262 14.853 23.4402 14.1223 23.4402C12.2496 23.4402 10.7857 24.9176 10.7857 26.7988C10.7857 28.6797 12.2496 30.1941 14.1223 30.1941C14.853 30.1941 15.5052 30.0079 16.0763 29.6387V30.0446H17.7026V21.2634H16.0763V24.0295ZM14.2035 28.6796C13.1456 28.6796 12.3309 27.8309 12.3309 26.7987C12.3309 25.8033 13.1455 24.9176 14.2035 24.9176C15.1777 24.9176 16.0763 25.8031 16.0763 26.7987C16.0763 27.8308 15.1777 28.6796 14.2035 28.6796Z" fill="#9E9E9E"/>
<path d="M19.7379 10.1716L14.0415 13.4174L18.4363 21.2033V22.8277H20.0627V21.2033H26.0055L19.7379 10.1716Z" fill="#9E9E9E"/>
<path d="M40.4913 22.8789C40.9783 22.8789 41.3059 22.5095 41.3059 22.0667C41.3059 21.6239 40.9783 21.2546 40.4913 21.2546C40.0825 21.2546 39.6769 21.6239 39.6769 22.0667C39.6769 22.5095 40.0825 22.8789 40.4913 22.8789ZM40.4913 21.3674C40.8971 21.3674 41.1406 21.6971 41.1406 22.0667C41.1406 22.4362 40.8971 22.7687 40.4913 22.7687C40.0825 22.7687 39.839 22.4359 39.839 22.0667C39.839 21.6975 40.0825 21.3674 40.4913 21.3674Z" fill="#9E9E9E"/>
<path d="M40.3335 22.1429H40.4958L40.6581 22.5124H40.8204L40.6581 22.1429C40.7393 22.1062 40.8204 22.0329 40.8204 21.8861C40.8204 21.7396 40.6581 21.6267 40.5769 21.6267H40.21V22.5122H40.3333L40.3335 22.1429ZM40.3335 21.7396H40.4958C40.6581 21.7396 40.6581 21.8102 40.6581 21.8864C40.6581 21.9964 40.6581 22.033 40.4958 22.033H40.3335V21.7396Z" fill="#9E9E9E"/>
<path d="M33.4845 24.0295C32.916 23.6261 32.2639 23.4402 31.5305 23.4402C29.6607 23.4402 28.1967 24.9176 28.1967 26.7988C28.1967 28.6797 29.6607 30.194 31.5305 30.194C32.2641 30.194 32.916 30.0078 33.4845 29.6387V30.0445H35.0324V23.5135H33.4845V24.0295ZM31.6145 28.6796C30.5565 28.6796 29.7419 27.8309 29.7419 26.7987C29.7419 25.8033 30.5564 24.9176 31.6145 24.9176C32.5916 24.9176 33.4845 25.8031 33.4845 26.7987C33.4845 27.8308 32.5916 28.6796 31.6145 28.6796Z" fill="#9E9E9E"/>
<path d="M26.005 24.0295C25.5152 23.6262 24.863 23.4402 24.1323 23.4402C22.2596 23.4402 20.7145 24.9176 20.7145 26.7988C20.7145 28.6797 22.2596 30.1941 24.1323 30.1941C24.8629 30.1941 25.5151 30.0079 26.005 29.6387V30.0446H27.6314V21.2634H26.005V24.0295ZM24.1324 28.6796C23.1554 28.6796 22.2598 27.8309 22.2598 26.7987C22.2598 25.8033 23.1555 24.9176 24.1324 24.9176C25.1905 24.9176 26.0051 25.8031 26.0051 26.7987C26.005 27.8308 25.1905 28.6796 24.1324 28.6796Z" fill="#9E9E9E"/>
</svg>
