<svg width="28" height="30" viewBox="0 0 28 30" fill="none" xmlns="http://www.w3.org/2000/svg">
<g clip-path="url(#clip0)">
<path d="M24.8127 1.09361C24.7971 1.04743 24.7993 0.966079 24.794 0.90154C24.7927 0.879224 24.7947 0.85662 24.7855 0.831379C24.7762 0.806137 24.7602 0.778313 24.7436 0.760127C24.727 0.741942 24.7097 0.733394 24.6912 0.731214C24.7262 0.719396 24.7567 0.695875 24.7789 0.661053C24.801 0.62623 24.8145 0.580049 24.8139 0.53054C24.8131 0.480974 24.7981 0.428081 24.7712 0.388956C24.7134 0.305371 24.6115 0.291143 24.5222 0.295446L24.1464 0.295446V1.14719H24.2922V0.797417L24.5101 0.797417C24.534 0.797531 24.5736 0.794261 24.6134 0.824666C24.6658 0.885649 24.6427 0.965907 24.6518 1.03406C24.6526 1.07473 24.6567 1.11317 24.6739 1.14725H24.8376C24.8439 1.11397 24.821 1.11954 24.8127 1.09361V1.09361ZM24.6209 0.648202C24.6028 0.660823 24.5788 0.668281 24.557 0.672584C24.4772 0.680099 24.3797 0.674993 24.2909 0.676141V0.416779L24.5003 0.416779C24.5554 0.417583 24.6192 0.415345 24.6563 0.487342C24.6752 0.54362 24.676 0.604201 24.6209 0.648202V0.648202Z" fill="#9E9E9E"/>
<path d="M25.1194 0.359289C25.055 0.250175 24.9627 0.159499 24.8517 0.096256C24.7404 0.0333702 24.6143 0.000183869 24.486 -7.62939e-06C24.3576 0.00016788 24.2315 0.0333553 24.1202 0.096256C24.0092 0.159512 23.9169 0.250184 23.8524 0.359289C23.7884 0.4686 23.7546 0.592467 23.7544 0.718585C23.7546 0.844722 23.7884 0.96861 23.8524 1.07794C23.9168 1.18705 24.0092 1.27773 24.1202 1.34097C24.2315 1.40387 24.3576 1.43706 24.486 1.43723C24.6136 1.43723 24.7411 1.40367 24.8517 1.34097C24.9627 1.27774 25.055 1.18707 25.1194 1.07794C25.1835 0.968625 25.2173 0.84473 25.2175 0.718585C25.2172 0.592465 25.1834 0.468604 25.1194 0.359289V0.359289ZM25.0317 1.03113C24.9769 1.1237 24.8984 1.2006 24.8041 1.25423C24.7102 1.30747 24.6018 1.33592 24.4933 1.33592C24.3848 1.33592 24.2764 1.30741 24.1824 1.25423C24.0881 1.20063 24.0097 1.12372 23.9549 1.03113C23.9007 0.938993 23.8716 0.832633 23.8716 0.726215C23.8716 0.619797 23.9007 0.513494 23.9549 0.421361C24.0096 0.328749 24.0881 0.251817 24.1824 0.198199C24.2764 0.145019 24.3848 0.116507 24.4933 0.116507C24.6018 0.116507 24.7102 0.145019 24.8041 0.198199C24.8985 0.251815 24.9769 0.328746 25.0317 0.421361C25.0859 0.513494 25.115 0.619854 25.115 0.726215C25.115 0.832575 25.0858 0.938993 25.0317 1.03113Z" fill="#9E9E9E"/>
<path d="M6.31395 24.1122C5.79881 24.1117 5.28875 24.012 4.81261 23.8188C4.33673 23.6249 3.90429 23.3409 3.53987 22.9831C3.17572 22.625 2.88676 22.2 2.68944 21.7324C2.49277 21.2645 2.39131 20.7633 2.39078 20.2571L2.39078 4.34598C2.39128 3.83975 2.49275 3.33852 2.68944 2.87064C2.88676 2.40301 3.17572 1.97805 3.53987 1.61996C3.90429 1.26212 4.33673 0.978179 4.81261 0.784282C5.28875 0.591032 5.79881 0.491341 6.31395 0.490845L21.1507 0.490845C21.6658 0.491341 22.1759 0.591032 22.652 0.784282C23.1265 0.977039 23.5617 1.26313 23.9248 1.61996C24.288 1.97679 24.5791 2.40447 24.7752 2.87064C24.9713 3.33682 25.0739 3.84154 25.0739 4.34598L25.0739 20.2571C25.0739 20.7616 24.9713 21.2662 24.7752 21.7324C24.5791 22.1986 24.2879 22.6263 23.9248 22.9831C23.5604 23.3409 23.1279 23.6249 22.652 23.8188C22.1759 24.012 21.6658 24.1117 21.1507 24.1122L6.31395 24.1122V24.1122Z" fill="#9E9E9E"/>
<path d="M9.77339 14.4044L7.13416 23.2361L14.1245 17.6636L21.6142 23.2361L18.5113 14.4044L24.4318 9.5329L16.835 9.5329L14.1245 1.54227L11.3426 9.5329H3.24664L9.77339 14.4044V14.4044Z" fill="white"/>
<path d="M3.06814 27.0561H1.28489C1.25395 27.0611 1.22722 27.0511 1.18606 27.121C1.18073 27.1338 1.17797 27.1474 1.17795 27.1612L1.17795 28.7383C1.17398 28.7724 1.21052 28.8261 1.24403 28.8355C1.25693 28.8407 1.27094 28.8435 1.28495 28.8435H3.0682V30H1.07088C0.859336 30.0001 0.652511 29.9385 0.476581 29.8231C0.300652 29.7076 0.163526 29.5435 0.0825573 29.3514C0.0288182 29.2237 0.00109135 29.0868 0.000946045 28.9486L0.000946045 26.916C0.000946045 26.7781 0.0290255 26.6402 0.0825573 26.5131C0.136089 26.3861 0.215424 26.2697 0.314315 26.1725C0.413663 26.0748 0.531613 25.9974 0.661427 25.9446C0.79124 25.8917 0.930374 25.8645 1.07088 25.8645H3.06814V27.0561V27.0561ZM4.49476 30C4.35448 30 4.2142 29.9724 4.08484 29.9198C3.8231 29.813 3.61512 29.6086 3.5065 29.3514C3.45274 29.2237 3.425 29.0868 3.42483 28.9486L3.42483 26.916C3.42483 26.7781 3.45296 26.6402 3.5065 26.5131C3.56003 26.3861 3.63936 26.2697 3.73819 26.1725C3.83745 26.075 3.95523 25.9977 4.08484 25.9448C4.21483 25.892 4.3541 25.8647 4.49476 25.8645H5.6717C5.81222 25.8645 5.95137 25.8917 6.0812 25.9445C6.21102 25.9973 6.32899 26.0748 6.42835 26.1724C6.52772 26.2701 6.60653 26.386 6.6603 26.5136C6.71406 26.6411 6.74172 26.7779 6.7417 26.916L6.7417 28.9486C6.7417 29.0865 6.71356 29.2244 6.66003 29.3515C6.6065 29.4786 6.52716 29.595 6.42827 29.6921C6.32893 29.7898 6.21098 29.8672 6.08116 29.9201C5.95135 29.9729 5.81221 30.0001 5.6717 30H4.49476V30ZM5.56476 27.1612C5.56873 27.1273 5.53218 27.0735 5.49867 27.0642C5.4857 27.0589 5.4718 27.0561 5.45775 27.0561H4.70877C4.67421 27.0522 4.61951 27.0881 4.60994 27.121C4.60463 27.1337 4.60177 27.1475 4.60177 27.1612L4.60177 28.7033C4.5978 28.7373 4.6344 28.7911 4.66785 28.8004C4.68081 28.8057 4.69482 28.8084 4.70877 28.8084H5.45775C5.49237 28.8123 5.54707 28.7764 5.55658 28.7436C5.56197 28.7308 5.56474 28.7171 5.56476 28.7033L5.56476 27.1612ZM9.27393 30V27.1613C9.2779 27.1273 9.24135 27.0735 9.2079 27.0642C9.19491 27.0589 9.18098 27.0561 9.16692 27.0561H8.45361C8.42267 27.0611 8.39593 27.0511 8.35478 27.121C8.34941 27.1337 8.3466 27.1475 8.3466 27.1612V30H7.16972L7.16972 25.8995H9.30959C9.44982 25.8995 9.59016 25.9271 9.71952 25.9797C9.9813 26.0865 10.1893 26.2909 10.2979 26.5481C10.3516 26.6759 10.3794 26.8127 10.3795 26.9509V30H9.27393V30V30ZM12.8404 30H11.6635L10.3795 25.8996H11.5565L12.3233 28.3485L13.0901 25.8996H14.267L12.983 30H12.8404V30ZM17.3698 27.3715V28.458H15.5866C15.5557 28.463 15.5289 28.453 15.4878 28.5229C15.4824 28.5357 15.4796 28.5494 15.4796 28.5631V28.7033C15.4756 28.7373 15.5122 28.7911 15.5457 28.8004C15.5586 28.8057 15.5726 28.8084 15.5866 28.8084H17.3698V30H15.3726C15.2324 30 15.092 29.9724 14.9627 29.9198C14.8334 29.8672 14.7149 29.7893 14.616 29.6921C14.5171 29.595 14.4379 29.4786 14.3843 29.3515C14.3306 29.2237 14.3028 29.0869 14.3027 28.9486V26.9159C14.3027 26.7781 14.3308 26.6402 14.3843 26.5131C14.4653 26.3211 14.6024 26.157 14.7783 26.0416C14.9543 25.9261 15.1611 25.8645 15.3726 25.8645H17.3698V27.0561H15.5866C15.5557 27.0611 15.5289 27.0511 15.4878 27.121C15.4733 27.1811 15.4733 27.2411 15.4878 27.3066C15.5135 27.3591 15.5499 27.3698 15.5866 27.3715H17.3698V27.3715ZM20.0091 30H21.2217L20.5084 28.3878C20.6626 28.2717 20.8167 28.1555 20.9 28.0036C20.9832 27.8518 21.0077 27.6646 21.0077 27.4766V26.9509C21.0077 26.8134 20.9797 26.6757 20.9262 26.5485C20.8176 26.2909 20.6094 26.0863 20.3472 25.9796C20.2173 25.9268 20.0782 25.8996 19.9377 25.8995H17.7978V29.9999H18.9748V28.1075H19.1174L20.0091 30ZM18.9748 27.3715V27.1262H19.6881C19.759 27.1262 19.845 27.1199 19.8896 27.1654C19.9343 27.2108 19.9343 27.287 19.8896 27.3325C19.845 27.3779 19.759 27.3716 19.6881 27.3716H18.9748V27.3715V27.3715ZM24.5386 25.8645V27.0561H22.7197C22.6888 27.0611 22.662 27.0511 22.6209 27.121C22.6066 27.1693 22.6064 27.2178 22.6209 27.2716C22.6466 27.3241 22.6829 27.3348 22.7197 27.3365H23.7895C23.8817 27.3365 23.974 27.3471 24.0583 27.3663C24.1426 27.3854 24.2191 27.4134 24.284 27.4463C24.3488 27.4793 24.4021 27.517 24.4455 27.5592C24.4887 27.6015 24.5219 27.6483 24.5505 27.7081C24.5791 27.7677 24.603 27.8404 24.6199 27.9384C24.6367 28.0364 24.6455 28.1599 24.6455 28.2829V28.8086C24.6455 28.9657 24.6404 29.1234 24.6264 29.2412C24.6126 29.3591 24.5925 29.4371 24.5689 29.5017C24.5453 29.5664 24.5182 29.6177 24.4831 29.6645C24.448 29.7114 24.4049 29.7536 24.3522 29.7933C24.2948 29.8361 24.2327 29.8723 24.1669 29.9012C24.0218 29.9657 23.8493 30.0003 23.6825 30.0001H21.3643V28.8086H23.3616C23.3925 28.8036 23.4192 28.8136 23.4604 28.7437C23.4749 28.6836 23.4749 28.6236 23.4604 28.5581C23.4347 28.5056 23.3983 28.4949 23.3616 28.4931H22.4699C22.3092 28.4931 22.1479 28.4841 22.0242 28.4657C21.9005 28.4473 21.8143 28.4213 21.745 28.3909C21.6756 28.3606 21.623 28.3259 21.579 28.2833C21.5349 28.2408 21.4996 28.1903 21.4684 28.124C21.4374 28.0577 21.4108 27.9756 21.392 27.8592C21.3732 27.7428 21.3642 27.5919 21.3642 27.4417V26.7407C21.3641 26.6011 21.3955 26.4511 21.4624 26.3067C21.4943 26.2382 21.533 26.1742 21.574 26.1197C21.615 26.0652 21.6581 26.0201 21.7004 25.9861C21.7404 25.9537 21.7855 25.928 21.8339 25.9099C21.8837 25.8909 21.9417 25.8758 22.0375 25.8688C22.1334 25.8618 22.2672 25.8629 22.3456 25.8635C22.424 25.8641 22.447 25.8647 22.4701 25.8647H24.5386V25.8645V25.8645ZM27.9981 27.3715V28.458H26.2149C26.1839 28.463 26.1572 28.453 26.1161 28.5229C26.1107 28.5357 26.1079 28.5493 26.1079 28.5631V28.7033C26.1039 28.7373 26.1405 28.7911 26.1739 28.8004C26.1869 28.8057 26.2009 28.8084 26.2149 28.8084H27.9981V30H26.0009C25.8607 30 25.7203 29.9724 25.5909 29.9198C25.3955 29.8402 25.2285 29.7055 25.1111 29.5326C24.9936 29.3597 24.9309 29.1565 24.9309 28.9486V26.9159C24.9309 26.7081 24.9936 26.5049 25.1111 26.332C25.2286 26.1592 25.3955 26.0244 25.5909 25.9448C25.7209 25.892 25.8602 25.8647 26.0009 25.8645H27.9981V27.0561H26.2149C26.1839 27.0611 26.1572 27.0511 26.1161 27.121C26.1016 27.1811 26.1016 27.2411 26.1161 27.3066C26.1418 27.3591 26.1781 27.3698 26.2149 27.3715H27.9981Z" fill="#9E9E9E"/>
</g>
<defs>
<clipPath id="clip0">
<rect width="28" height="30" fill="white"/>
</clipPath>
</defs>
</svg>
