<svg width="57" height="43" viewBox="0 0 57 43" fill="none" xmlns="http://www.w3.org/2000/svg">
<path d="M16.3791 14.2483C17.5865 14.2483 18.5655 15.2326 18.5655 16.4473C18.5655 17.6621 17.5866 18.6465 16.3791 18.6465H6.38001C5.17232 18.6465 4.19334 17.6621 4.19334 16.4473C4.19334 15.2326 5.17232 14.2483 6.38001 14.2483L16.3791 14.2483V14.2483Z" fill="#9E9E9E"/>
<path d="M15.374 20.0109C16.5817 20.0109 17.5605 20.9955 17.5605 22.2102C17.5605 23.425 16.5817 24.4094 15.374 24.4094H9.68267C9.19731 24.4112 8.80002 24.7972 8.78136 25.2806V28.1469C8.78136 29.3615 7.80252 30.346 6.59526 30.346C5.38743 30.346 4.4086 29.3615 4.4086 28.1469V23.269C4.4086 21.4698 5.85882 20.0109 7.64748 20.0109H15.374Z" fill="#9E9E9E"/>
<path d="M19.5585 15.9841C19.5585 14.7695 20.5373 13.7849 21.7447 13.7849C22.9525 13.7849 23.9314 14.7695 23.9314 15.9841L23.9314 28.1625C23.9314 29.3773 22.9525 30.362 21.7447 30.362C20.5373 30.362 19.5585 29.3773 19.5585 28.1625L19.5585 15.9841Z" fill="#9E9E9E"/>
<path d="M46.4688 25.9999L47.3477 25.9973C47.5273 25.9973 47.6731 25.8507 47.6731 25.6704C47.6736 25.6245 47.6661 25.5837 47.65 25.545L44.3827 20.0228L39.2787 28.912C38.8845 29.5994 38.1766 29.9914 37.4417 30.0111C37.42 30.0141 37.3982 30.016 37.3754 30.016L29.069 30.016C27.28 30.016 25.83 28.5571 25.83 26.758L25.83 15.9841C25.83 14.7695 26.8088 13.7849 28.0166 13.7849C29.224 13.7849 30.2031 14.7695 30.2031 15.9841V24.7106C30.2046 25.1991 30.5883 25.5989 31.069 25.6171H35.7155C35.8352 25.5801 36.2005 25.4549 36.312 25.2811L42.1483 15.1186C42.5911 14.3538 43.415 13.8389 44.3579 13.8389C45.3014 13.8389 46.1252 14.3546 46.5664 15.121L52.2533 24.7252C52.6769 25.2799 52.9285 25.9735 52.9285 26.7267C52.9285 28.5433 51.4646 30.0157 49.6591 30.0157H43.0296C41.9269 30.0157 41.0331 29.1164 41.0331 28.0071C41.0331 26.8985 41.9268 25.9993 43.0296 25.9993H46.4688V25.9999V25.9999Z" fill="#9E9E9E"/>
</svg>
