<svg width="37" height="35" viewBox="0 0 37 35" fill="none" xmlns="http://www.w3.org/2000/svg">
<path d="M20.1006 2.38547C20.0862 2.30922 20.077 2.23035 20.0716 2.1504C19.9957 1.0431 20.8176 0.0828943 21.9095 0.00494806C23.0025 -0.0722264 23.9488 0.762493 24.0251 1.86979C24.1012 2.97709 23.2792 3.93745 22.1875 4.01539C22.1184 4.02064 22.0502 4.02172 21.9827 4.01895C21.9386 4.03052 21.912 4.03592 21.8739 4.07003C21.7617 4.24769 22.1599 4.21451 21.8893 4.99073C21.8893 4.99073 21.8872 5.07593 21.8573 5.16113C21.8359 5.45902 21.7228 6.34205 21.7069 6.8122C21.7645 6.88042 21.7803 6.91361 21.7742 7.07876C21.7483 7.30226 21.698 7.84973 21.6167 8.20057C21.5479 8.50124 21.4267 8.5585 21.3292 8.63212C21.192 9.25492 21.1557 9.77091 20.8036 10.5274C20.7716 11.1008 20.7319 11.257 20.6132 11.537C20.5999 12.3813 20.6575 12.5071 20.096 13.844C19.9509 14.4693 20.0888 14.9019 20.242 15.5516C20.3984 16.2193 20.833 16.4982 20.8977 17.182C21.0499 18.7924 21.0117 19.8889 20.671 21.1515L20.9684 21.8657C21.3375 22.0372 22.2532 22.5065 21.7453 23.2494C22.4604 23.6308 23.5409 24.0355 24.4318 24.8084C24.7901 25.111 25.1689 25.4412 25.5085 25.8284C26.1553 25.9306 26.0862 25.9828 26.5659 26.2816C27.9754 27.1585 30.2363 28.8971 31.547 30.1283C31.7726 30.2621 31.8648 30.3583 32.0468 30.4551C32.0754 30.5105 32.0831 30.5231 32.077 30.5382C32.0143 30.6992 32.0167 30.7036 31.9599 30.8317C32.0308 30.9112 32.1624 30.9851 32.2414 31.0542C32.3147 31.0775 32.3147 31.0419 32.4414 31.0104C32.6057 31.1666 32.8094 31.2924 32.8826 31.2848C33.1057 31.2276 33.0677 31.2745 33.2561 31.0606C33.324 30.9897 33.4374 31.0616 33.4374 31.0616C33.5083 30.9774 33.6604 30.8091 33.8633 30.688C34.0251 30.5912 34.334 30.5807 34.334 30.5807C34.4375 30.5816 34.4181 30.6892 34.4091 30.7242C34.2922 30.7854 34.0444 30.8527 33.9054 30.9567C33.6028 31.2743 33.3656 31.7025 33.3656 31.7025C33.9751 31.6179 34.3497 31.7713 34.8576 31.7122C35.1345 31.6962 35.3391 31.7142 35.6299 31.5008C35.6299 31.5008 35.9097 31.2987 36.1601 31.1919C36.4035 31.0842 36.6342 31.1416 36.8484 31.2995C36.9995 31.4724 37.0907 31.4734 36.8607 31.7178C36.7776 31.8127 36.657 31.9187 36.5039 32.0722C36.2348 32.3415 35.8729 32.7008 35.4978 32.9983C35.1184 33.2986 34.6875 33.5687 34.4182 33.6927C33.7397 34.1872 33.9 34.0577 33.3663 34.5479C33.299 34.609 33.1202 34.7183 33.0336 34.7767C32.8229 34.9165 32.7575 34.7998 32.62 34.5431C32.62 34.5431 32.5573 34.4473 32.4537 34.2428C32.3404 34.0194 32.2554 33.7637 32.2899 33.768C32.1634 33.7519 31.5945 33.0753 31.593 32.9299C31.4724 32.9019 30.9592 32.3978 30.9407 32.3017L30.4859 31.9319C29.9657 32.0415 29.8462 31.7139 28.4722 30.725C28.3156 30.7222 28.0733 30.6364 27.7263 30.3753C27.106 29.8715 25.6184 28.7321 25.3663 28.6018C25.0954 28.4623 24.7718 28.33 24.5733 28.1639C24.2759 28.1086 24.1133 28.077 23.9646 28.0349C23.8124 27.9929 23.6744 27.9379 23.2891 27.8858C22.663 27.8067 22.013 27.5439 21.3948 27.2299C21.1018 27.0892 20.8468 27.0174 20.5948 26.9077C20.0293 26.6655 19.5447 26.4475 19.1689 26.3591C19.0257 26.3449 18.3442 26.1375 17.9865 25.9258C17.8628 25.861 17.791 25.7993 17.7097 25.7806C17.5222 25.7368 17.4016 25.8119 17.3168 25.8409C16.8584 26.083 16.4293 26.2923 16.0325 26.5085C15.6636 26.7087 15.3237 26.9166 14.9639 27.1268C14.6388 27.3168 14.2636 27.4966 13.8779 27.6831C13.8779 27.6831 12.7777 28.242 12.1771 28.4592C11.6558 28.8907 10.5903 29.6375 9.94012 30.007C9.6182 30.1623 8.99232 30.564 8.70374 30.6539C8.53936 30.7883 7.95245 31.2127 7.49339 31.563C7.13859 31.832 6.87025 32.0592 6.87025 32.0592C6.66416 32.2466 6.67817 32.3355 6.28623 32.1666C6.17741 32.2571 6.09339 32.3137 6.02337 32.3659C5.74042 32.5741 5.71607 32.5236 5.61287 32.5181C5.41546 32.6914 5.3908 32.6019 5.2182 32.801C5.1048 32.9788 5.22078 32.9365 4.98182 33.023C4.93129 33.0427 4.90739 33.1041 4.86858 33.1387C4.67634 33.2989 4.67558 33.7524 4.21561 33.7848C3.94925 33.9776 4.01728 34.2104 3.81363 34.2002C3.82611 34.4002 3.45366 34.6921 3.38638 34.691C2.79963 34.8964 2.75883 34.4589 2.05442 34.7852C1.96325 34.8273 1.82961 34.9443 1.65366 34.9782C1.34407 35.0375 0.96964 34.9753 0.741329 34.796C0.381968 34.5152 0.0510706 33.973 0.0510706 33.973C-0.0630847 33.6995 0.00342978 33.526 0.359747 33.2676C0.508453 33.1717 0.53585 33.1 0.785469 33.0828C0.909366 33.0351 0.875576 33.108 1.09688 33.0274C1.2252 32.9807 1.2252 33.0142 1.48349 32.9918C1.54285 32.9512 1.62596 32.9371 1.73752 32.9002C1.94194 32.832 2.14118 32.7555 2.14118 32.7555C2.14118 32.7555 2.19323 32.7025 2.38973 32.7214C2.55609 32.6524 2.72702 32.5499 2.81469 32.5185C2.79247 32.2515 2.82078 32.264 2.94285 32.1561C3.09506 32.0232 3.12246 32.0445 3.23585 32.1271C3.28364 32.099 3.30678 32.0895 3.30145 32.049C3.28273 31.9098 3.16507 31.8443 3.20069 31.5377C3.14833 31.4145 3.07116 31.2632 3.08821 31.1715C3.11302 31.0726 3.13692 31.0252 3.19613 30.9937C3.25914 30.9598 3.27938 31.0056 3.31302 31.0439C3.3733 31.1149 3.422 31.325 3.422 31.325C3.44316 31.5619 3.51561 31.8687 3.74666 31.6954C3.88288 31.5552 3.90922 31.1823 4.18715 31.262L4.38562 31.4367C4.55366 31.2763 4.56158 31.2763 4.66249 31.2117C4.66249 31.2117 4.50495 31.0502 4.64301 30.9246C4.73768 30.8392 4.85183 30.7784 5.05457 30.5504C5.6112 29.9267 5.89689 29.6512 6.49872 29.1486C7.69948 28.1472 9.06584 27.4448 9.93373 27.0953C10.2168 26.7312 10.4922 26.4887 11.1205 26.4276C11.8671 25.1488 13.2972 24.0067 13.6257 23.8248C13.8928 23.3337 14.0088 23.3859 14.3582 23.2876C14.6351 23.0624 14.6978 23.0624 14.822 22.8274C14.9423 22.3419 14.5442 21.0453 15.5608 20.9796C15.7767 20.6701 15.7226 20.7445 15.9634 20.452C15.8009 20.0444 15.7334 19.7037 15.6893 19.4102C15.6812 19.376 15.2858 19.0933 15.398 18.7247C15.2299 18.522 14.9158 18.0485 14.8176 17.8272C14.7725 17.8281 14.7353 17.8111 14.6859 17.8042C14.6346 17.7957 14.5709 17.7988 14.4989 17.7924C14.3406 18.207 14.1681 18.2376 13.8868 18.3291C13.3841 19.4152 13.2072 19.8751 11.7852 20.7731C11.2206 21.4139 11.04 22.1279 11.0427 22.1174C10.9454 22.329 10.9798 22.6254 11.0313 22.7839C10.957 23.019 10.9765 23.0426 10.9765 23.0426C11.0075 23.1312 11.0879 23.249 11.1872 23.274C11.3579 23.3198 11.5289 23.3126 11.5188 23.5055C11.4961 23.7467 11.1835 23.7074 11.0357 23.6805C10.4668 23.5888 10.6465 23.213 10.2827 23.3383C10.004 23.5231 9.89948 24.0687 9.44484 23.9979C9.38456 23.9574 9.40328 23.8381 9.44377 23.752C9.50754 23.6172 9.62094 23.506 9.55366 23.4556C9.25823 23.5499 8.66508 23.7492 8.66508 23.7492C8.38639 23.8262 8.08106 23.6853 8.35534 23.4995C8.48304 23.4493 8.66508 23.3865 8.89004 23.2402C8.89004 23.2402 9.00587 23.0804 8.78395 23.1602C8.54134 23.248 8.1838 23.3028 7.92733 23.2741C7.92733 23.2741 7.39552 23.2033 7.32748 23.1611C7.25853 23.1188 7.19567 22.9522 7.36219 22.9528C7.57284 22.9549 8.10024 22.8916 8.50907 22.7816C8.70633 22.7033 9.08152 22.4781 9.29217 22.3726C9.29217 22.3726 9.52048 22.0349 9.64621 21.9688C9.85579 21.7238 10.0328 21.5795 10.2187 21.3289C10.4001 20.9493 10.5876 20.3481 11.1885 19.4176C11.4663 18.9886 11.8115 18.4887 12.2461 18.0423C12.2461 18.0423 12.3584 17.3271 12.9238 16.8182C13.0488 16.5201 13.2378 16.1694 13.4247 15.8445C13.4973 15.7198 13.5663 15.6113 13.6354 15.4928C13.8106 15.2137 13.9948 14.6942 14.6779 14.6125C14.6779 14.6125 14.97 14.3937 15.0823 14.2381C15.2575 14.0865 15.2176 13.8507 15.3601 13.6844C15.1424 13.4691 14.5859 13.0644 14.5318 12.5018C14.4742 11.9051 14.684 11.4143 15.0397 11.0509C15.4346 10.6507 15.8505 10.4507 16.3556 10.4811C16.9867 10.5761 17.106 10.7879 17.3069 10.998C17.4998 11.1972 17.5716 11.069 17.6528 11.3022C18.1823 11.445 18.1528 11.3822 18.1483 11.777C18.2296 11.8881 18.366 11.9915 18.3642 12.2221C18.5421 11.8478 18.5771 11.7788 19.0525 11.3669C19.1649 11.0321 19.241 10.7029 19.3403 10.3681C19.4325 10.0586 19.5476 9.74004 19.6369 9.50034C19.5423 8.82367 19.7369 8.71162 19.9961 8.11845C19.9502 8.0368 19.9601 8.01349 19.9794 7.87967C20.0803 7.48763 20.2378 6.96902 20.3314 6.63068C20.3314 6.63068 20.3625 6.49609 20.4995 6.48606C20.6181 6.05805 20.796 5.26115 20.8261 5.09877C20.9482 4.65116 20.8694 4.50746 20.7756 4.25525C20.7458 4.17268 20.7598 4.05522 20.7077 3.96353C20.5599 3.70253 20.4006 3.36327 20.2926 3.12094C20.2226 2.96659 20.1118 2.38501 20.1118 2.38501C20.0182 2.0885 20.1006 2.38547 20.1006 2.38547Z" fill="#DED9D9"/>
</svg>
