<svg width="53" height="40" viewBox="0 0 53 40" fill="none" xmlns="http://www.w3.org/2000/svg">
<path d="M28.385 8.84469C28.2364 8.86669 28.0935 9.41776 27.8061 9.70509C27.5961 9.91189 27.3338 9.89949 27.1945 10.1555C27.1417 10.2507 27.1586 10.4143 27.0989 10.5706C26.9812 10.8844 26.5686 10.9123 26.5686 11.2539C26.5673 11.6228 26.9124 11.6931 27.2122 11.9554C27.446 12.1658 27.4685 12.311 27.7514 12.4135C27.9934 12.4958 28.353 12.2258 28.6767 12.323C28.9421 12.4023 29.1965 12.4596 29.2568 12.7343C29.3096 12.9879 29.2529 13.38 28.9305 13.3347C28.822 13.3222 28.3506 13.163 27.7725 13.225C27.0738 13.305 26.2772 13.534 26.1993 14.3178C26.1563 14.7551 26.6947 15.2715 27.2145 15.1666C27.5736 15.0959 27.4039 14.6691 27.5989 14.4622C27.8557 14.1964 29.3096 15.3884 30.6605 15.3884C31.2294 15.3884 31.6526 15.2436 32.0728 14.8008C32.112 14.7668 32.16 14.6946 32.2205 14.6898C32.278 14.6946 32.3779 14.7512 32.4111 14.7754C33.4987 15.6555 34.3218 17.4215 38.3216 17.4418C38.8843 17.445 39.5247 17.7155 40.0484 18.1956C40.5149 18.6296 40.7874 19.3058 41.053 19.9908C41.4535 21.0191 42.1705 22.0194 43.2583 23.1326C43.3175 23.1922 44.2132 23.8927 44.285 23.945C44.2959 23.953 44.3619 24.1107 44.339 24.1987C44.3126 24.8667 44.2159 26.8072 45.6539 26.8954C46.0053 26.9132 45.9136 26.6647 45.9136 26.4935C45.9127 26.1555 45.8513 25.8194 46.0283 25.4731C46.2703 24.9972 45.5148 24.7783 45.5368 23.749C45.5524 22.9815 44.9116 23.1124 44.587 22.5276C44.3997 22.189 44.2331 22.0096 44.2452 21.5952C44.3184 19.264 43.752 17.7319 43.4699 17.3556C43.2496 17.0718 43.0672 16.9591 43.2685 16.8279C44.4688 16.0296 44.7407 15.288 44.7407 15.288C45.379 13.7786 45.9527 12.3999 46.7441 11.7928C46.9034 11.6672 47.3123 11.3602 47.563 11.2399C48.3015 10.8896 48.69 10.677 48.9048 10.4671C49.2439 10.1347 49.5124 9.44043 49.1869 9.01989C48.7821 8.50056 48.0828 8.91256 47.7744 9.09683C45.5682 10.4143 45.2431 12.7384 44.4788 14.0731C43.869 15.1395 42.8779 15.9228 41.9915 15.9868C41.3276 16.0364 40.6108 15.9011 39.898 15.586C38.1635 14.821 37.215 13.8331 36.9903 13.6584C36.5245 13.2966 32.9075 9.72296 29.9764 9.57709C29.9764 9.57709 29.6125 8.84376 29.521 8.83229C29.3068 8.80429 29.0873 9.26963 28.93 9.32403C28.7829 9.37296 28.5344 8.82016 28.385 8.84469Z" fill="#9E9E9E"/>
<path d="M15.4834 30.172C15.2074 30.1655 14.9731 29.9379 14.9731 29.6563L14.9742 20.4561H11.9607L11.9607 30.5971C11.9607 31.0945 12.3609 31.4999 12.852 31.4999H18.1182C18.6126 31.4999 19.0081 31.0947 19.0081 30.5971V20.4561H15.9975L15.9952 29.6563C15.9953 29.9379 15.7608 30.1655 15.4834 30.172Z" fill="#9E9E9E"/>
<path d="M25.5709 20.4561H21.011C20.4707 20.4561 20.0312 20.8978 20.0312 21.4465V31.4996H23.0475V22.2778C23.0494 21.9956 23.2766 21.7714 23.5573 21.7714C23.8384 21.7714 24.0646 21.9902 24.0708 22.2701V31.4996H27.0741V22.2701C27.0779 21.99 27.3037 21.7714 27.5849 21.7714C27.8631 21.7714 28.0935 21.9956 28.0955 22.2778V31.4996H31.112V21.4465C31.112 20.8981 30.6711 20.4561 30.1318 20.4561H25.5709Z" fill="#9E9E9E"/>
<path d="M9.95033 28.7248H6.90641V31.4999H3.89482L3.89482 20.4561H9.96941C10.5132 20.4561 10.938 20.9008 10.938 21.4508V27.7292C10.9379 28.2808 10.4965 28.7248 9.95033 28.7248ZM7.92838 22.2972C7.93077 21.9902 7.6822 21.7718 7.41813 21.7718H6.90641L6.90641 27.3576H7.41799C7.68379 27.3576 7.93051 27.1449 7.92812 26.8388L7.92812 22.2972" fill="#9E9E9E"/>
<path d="M36.1683 31.4996V28.7269H35.1444V31.4996H32.1342V21.4465C32.1342 20.8981 32.5735 20.4561 33.1141 20.4561H38.1989C38.7403 20.4561 39.179 20.8978 39.179 21.4465V31.4996H36.1683V31.4996ZM36.1683 27.3592V22.274C36.1609 21.993 35.9363 21.7768 35.6551 21.7768C35.3768 21.7768 35.1474 22.0017 35.1445 22.282V27.3588L36.1683 27.3592Z" fill="#9E9E9E"/>
</svg>
