<svg width="59" height="46" viewBox="0 0 59 46" fill="none" xmlns="http://www.w3.org/2000/svg">
<path d="M15.8691 14.0829L13.0215 25.2265L10.1024 14.0829H4.83433L10.3873 31.9439H15.6557L20.2832 17.2837L54.2229 17.2837L54.3657 14.0829L15.8691 14.0829Z" fill="#9E9E9E"/>
<path d="M48.3985 23.3922C47.0957 22.8974 46.9585 22.555 46.9585 22.1748C46.9585 21.7942 47.507 21.3377 48.3299 21.3377C49.1521 21.3377 49.975 21.8325 49.975 22.5172H53.3337C53.3337 21.2997 52.3058 18.37 48.5351 18.37C44.765 18.37 43.3257 20.8432 43.4627 22.5172C43.4627 23.9249 44.4227 25.561 48.6727 26.9688C49.975 27.4636 50.2492 28.0341 50.2492 28.4148C50.2492 28.795 49.4265 29.366 48.6043 29.366C47.7814 29.366 46.6844 28.6427 46.6844 27.92H43.12C43.12 29.1755 44.08 32.1813 48.467 32.1813C52.2374 32.1813 53.9509 29.6322 53.8137 27.9581C53.8137 25.3324 50.1808 23.8487 48.3985 23.3922Z" fill="#9E9E9E"/>
<path d="M25.845 18.7882H21.8693L17.7563 31.9527H21.2525L21.6637 30.1645H25.9136L26.4623 31.9527H29.9141L25.845 18.7882ZM22.4862 27.3872L23.8572 22.4408L25.2282 27.3872H22.4862V27.3872Z" fill="#9E9E9E"/>
<path d="M38.2793 25.4848L34.3034 18.7882H30.6022L30.6022 31.955L34.1664 31.9528V24.8757L38.3479 31.9528H41.8443V18.7882L38.2793 18.7882V25.4848Z" fill="#9E9E9E"/>
</svg>
