<?xml version="1.0" standalone="no"?>
<!DOCTYPE svg PUBLIC "-//W3C//DTD SVG 20010904//EN"
 "http://www.w3.org/TR/2001/REC-SVG-20010904/DTD/svg10.dtd">
<svg version="1.0" xmlns="http://www.w3.org/2000/svg"
 width="66.000000pt" height="66.000000pt" viewBox="0 0 66.000000 66.000000"
 preserveAspectRatio="xMidYMid meet">

<g transform="translate(0.000000,66.000000) scale(0.100000,-0.100000)"
fill="#000000" stroke="none">
<path d="M617 339 c-4 -16 -11 -20 -24 -15 -14 6 -15 4 -6 -5 16 -16 43 -4 43
21 0 26 -6 26 -13 -1z"/>
<path d="M580 247 c0 -31 -27 -79 -55 -99 -6 -5 -6 -8 0 -8 15 1 50 33 64 57
14 27 14 70 1 78 -6 4 -10 -8 -10 -28z"/>
</g>
</svg>
